<svg width="349" height="95" viewBox="0 0 349 95" fill="none" xmlns="http://www.w3.org/2000/svg">
<path d="M0.125 4.5625C4.3125 5.0625 7.9375 5.4375 11 5.6875C14.0625 5.875 16.5938 6.03125 18.5938 6.15625C20.9062 6.28125 22.8438 6.3125 24.4062 6.25C26.0312 6.1875 28.25 6.03125 31.0625 5.78125C33.4375 5.59375 36.5625 5.34375 40.4375 5.03125C44.3125 4.65625 49.1562 4.15625 54.9688 3.53125C55.0312 4.96875 55.0625 6.375 55.0625 7.75C55.125 9.0625 55.1875 10.2188 55.25 11.2188C55.3125 12.4062 55.3438 13.5 55.3438 14.5C55.3438 15.5625 55.2812 16.9062 55.1562 18.5312C55.0312 19.9062 54.8125 21.6562 54.5 23.7812C54.25 25.8438 53.8438 28.3125 53.2812 31.1875C52.4062 27.8125 51.5625 25.0938 50.75 23.0312C49.9375 20.9062 49.1875 19.2188 48.5 17.9688C47.75 16.5312 47 15.4375 46.25 14.6875C45.4375 14.125 44.4688 13.6562 43.3438 13.2812C42.3438 12.9687 41.0625 12.7188 39.5 12.5312C38 12.3438 36.2188 12.375 34.1562 12.625C33.8438 20.875 33.625 27.5625 33.5 32.6875C33.375 37.8125 33.2812 41.8125 33.2188 44.6875C33.1562 48.125 33.125 50.5938 33.125 52.0938C33.1875 54.2188 33.5312 56.3125 34.1562 58.375C34.6562 60.125 35.4688 61.9375 36.5938 63.8125C37.7188 65.6875 39.3438 67.3438 41.4688 68.7812H30.0312C28.9688 68.7812 27.6562 68.8438 26.0938 68.9688C24.7812 69.0938 23.0938 69.2188 21.0312 69.3438C19.0312 69.4688 16.6875 69.6875 14 70C14.9375 68.375 15.6875 66.9062 16.25 65.5938C16.8125 64.2812 17.25 63.1562 17.5625 62.2188C17.9375 61.0938 18.2188 60.0938 18.4062 59.2188C18.4688 57.9688 18.625 55.4375 18.875 51.625C18.9375 50.0625 19 48.125 19.0625 45.8125C19.1875 43.5 19.3125 40.75 19.4375 37.5625C19.625 34.375 19.7812 30.7188 19.9062 26.5938C20.0938 22.4062 20.2812 17.6875 20.4688 12.4375C19.3438 12.125 18.2812 12.1562 17.2812 12.5312C16.2812 12.8438 15.4062 13.25 14.6562 13.75C13.7812 14.375 12.9375 15.125 12.125 16C11.3125 17.0625 10.4062 18.4375 9.40625 20.125C8.53125 21.5625 7.53125 23.4688 6.40625 25.8438C5.28125 28.1562 4 31.0312 2.5625 34.4688C2.25 30.8438 2.03125 27.875 1.90625 25.5625C1.78125 23.1875 1.6875 21.3438 1.625 20.0312C1.5625 18.4688 1.53125 17.3125 1.53125 16.5625C1.53125 15.875 1.46875 14.9688 1.34375 13.8438C1.21875 12.9062 1.0625 11.6875 0.875 10.1875C0.6875 8.625 0.4375 6.75 0.125 4.5625ZM51.125 28.0938C52.3125 28.1562 53.375 28.1875 54.3125 28.1875C55.3125 28.125 56.1562 28.0625 56.8438 28C57.6562 27.9375 58.375 27.875 59 27.8125C59.9375 27.6875 60.9062 27.5312 61.9062 27.3438C62.7812 27.2188 63.6875 27.0625 64.625 26.875C65.625 26.625 66.5938 26.3438 67.5312 26.0312C67.1562 26.9688 66.8438 27.7812 66.5938 28.4688C66.3438 29.1562 66.1562 29.75 66.0312 30.25C65.8438 30.8125 65.75 31.2812 65.75 31.6562C65.6875 32.0938 65.6562 32.625 65.6562 33.25C65.5938 34.3125 65.5938 36.0312 65.6562 38.4062C68.9062 35.5938 71.625 33.4062 73.8125 31.8438C76.0625 30.2812 77.8438 29.0625 79.1562 28.1875C80.7188 27.1875 81.9375 26.5312 82.8125 26.2188C85.125 25.8438 87.1562 26.375 88.9062 27.8125C89.6562 28.4375 90.375 29.2812 91.0625 30.3438C91.75 31.3438 92.3438 32.6875 92.8438 34.375C93.3438 36.0625 93.7188 38.0938 93.9688 40.4688C94.2188 42.7812 94.25 45.5625 94.0625 48.8125C92.75 48.9375 91.5625 49.0625 90.5 49.1875C89.5 49.3125 88.6562 49.4062 87.9688 49.4688C87.1562 49.5938 86.4062 49.6562 85.7188 49.6562L83.1875 49.9375C82.3125 50.0625 81.2188 50.1875 79.9062 50.3125C78.6562 50.375 77.125 50.5 75.3125 50.6875C77.9375 48.5625 79.625 46.7188 80.375 45.1562C81.1875 43.5312 81.5312 42.1875 81.4062 41.125C81.2812 39.9375 80.7188 38.9062 79.7188 38.0312C78.5312 37.3438 77.25 37.0938 75.875 37.2812C74.6875 37.4062 73.3125 37.9375 71.75 38.875C70.1875 39.8125 68.5312 41.5625 66.7812 44.125C66.9062 48.125 67.0312 51.4375 67.1562 54.0625C67.3438 56.6875 67.5 58.8125 67.625 60.4375C67.8125 62.3125 67.9688 63.7812 68.0938 64.8438C68.2812 65.7812 68.6562 66.7812 69.2188 67.8438C69.6562 68.7188 70.2812 69.6875 71.0938 70.75C71.9062 71.8125 72.9688 72.875 74.2812 73.9375C71.5312 73.8125 69.2812 73.8125 67.5312 73.9375C66.4688 74 65.5312 74.0625 64.7188 74.125C63.8438 74.25 62.9062 74.375 61.9062 74.5C61.0312 74.625 60 74.75 58.8125 74.875C57.6875 75.0625 56.4375 75.25 55.0625 75.4375C55.5625 74.75 55.9688 73.9375 56.2812 73C56.5938 72.125 56.8438 71.2812 57.0312 70.4688C57.2812 69.5312 57.4688 68.5625 57.5938 67.5625C57.6562 66.6875 57.6875 65.375 57.6875 63.625C57.75 61.875 57.7188 59.9062 57.5938 57.7188C57.5312 55.4688 57.4375 53.1562 57.3125 50.7812C57.1875 48.3438 57.0312 46.0625 56.8438 43.9375C56.6562 41.8125 56.4375 39.9688 56.1875 38.4062C56 36.7812 55.7812 35.6562 55.5312 35.0312C55.2188 34.2812 54.8438 33.5312 54.4062 32.7812C54.0312 32.0938 53.5625 31.375 53 30.625C52.4375 29.8125 51.8125 28.9688 51.125 28.0938ZM105.031 35.0312C105.344 34.6562 105.531 33.9688 105.594 32.9688C105.719 31.9062 105.969 30.7188 106.344 29.4062C106.781 28.0938 107.5 26.7188 108.5 25.2812C109.5 23.8438 111.125 22.5 113.375 21.25C115.562 20 117.688 19.25 119.75 19C121.812 18.75 123.781 18.8438 125.656 19.2812C127.531 19.7188 129.281 20.4062 130.906 21.3438C132.594 22.2812 134.125 23.3125 135.5 24.4375C136.438 25.1875 137.188 26.2812 137.75 27.7188C138.312 29.0938 138.75 30.6562 139.062 32.4062C139.375 34.1562 139.594 36 139.719 37.9375C139.906 39.8125 140.031 41.6562 140.094 43.4688C140.156 45.2188 140.188 46.8438 140.188 48.3438C140.25 49.7812 140.375 50.9688 140.562 51.9062C140.812 53.2812 141.25 54.4688 141.875 55.4688C142.5 56.4062 143.188 57.2188 143.938 57.9062C144.688 58.5312 145.438 59.0312 146.188 59.4062C146.938 59.7812 147.594 60.0625 148.156 60.25C148.531 60.4375 148.875 60.5625 149.188 60.625C149.812 60.875 150.25 60.875 150.5 60.625C150.125 61.5 149.781 62.25 149.469 62.875C149.156 63.5 148.906 64.0312 148.719 64.4688C148.469 64.9688 148.25 65.375 148.062 65.6875C147.875 66.0625 147.656 66.4062 147.406 66.7188C147.219 67.0312 146.969 67.375 146.656 67.75C146.344 68.125 146.031 68.5312 145.719 68.9688C144.906 68.6562 144.125 68.2812 143.375 67.8438C142.688 67.4062 142.062 67 141.5 66.625C140.812 66.1875 140.188 65.75 139.625 65.3125C139.062 64.875 138.531 64.375 138.031 63.8125C137.594 63.3125 137.125 62.7812 136.625 62.2188C136.188 61.6562 135.812 61.0312 135.5 60.3438C135.125 61.1562 134.219 62.3125 132.781 63.8125C131.406 65.3125 129.594 66.6875 127.344 67.9375C125.094 69.125 122.469 69.9688 119.469 70.4688C116.531 70.9688 113.281 70.625 109.719 69.4375C108.156 68.9375 106.688 68.2188 105.312 67.2812C103.938 66.2812 102.75 65.0938 101.75 63.7188C100.812 62.3438 100.125 60.7812 99.6875 59.0312C99.3125 57.2188 99.3438 55.2188 99.7812 53.0312C100.219 50.8438 101 49 102.125 47.5C103.25 46 104.594 44.7812 106.156 43.8438C107.719 42.9062 109.469 42.1875 111.406 41.6875C113.344 41.1875 115.344 40.8438 117.406 40.6562C119.031 40.5938 120.656 40.6875 122.281 40.9375C123.656 41.1875 125.094 41.6562 126.594 42.3438C128.094 42.9688 129.375 43.9375 130.438 45.25C130.375 41.9375 130.25 39.3125 130.062 37.375C129.938 35.375 129.812 33.8438 129.688 32.7812C129.438 31.5312 129.219 30.6562 129.031 30.1562C128.719 29.7188 128.375 29.2188 128 28.6562C127.688 28.0938 127.281 27.5938 126.781 27.1562C126.281 26.6562 125.656 26.25 124.906 25.9375C124.156 25.625 123.281 25.5 122.281 25.5625C121.219 25.625 120.375 25.9062 119.75 26.4062C119.125 26.9062 118.625 27.5 118.25 28.1875C117.938 28.8125 117.75 29.5 117.688 30.25C117.625 31 117.656 31.6562 117.781 32.2188C117.906 32.5938 118.094 33 118.344 33.4375C118.594 33.8125 118.938 34.2188 119.375 34.6562C119.812 35.0938 120.406 35.4688 121.156 35.7812C119.719 35.9688 118.438 36.125 117.312 36.25C116.188 36.3125 115.219 36.4062 114.406 36.5312C113.469 36.6562 112.656 36.75 111.969 36.8125C111.281 36.875 110.469 37 109.531 37.1875C108.719 37.3125 107.719 37.4688 106.531 37.6562C105.344 37.8438 103.969 38.0938 102.406 38.4062C102.781 37.9688 103.125 37.5625 103.438 37.1875C103.75 36.75 104.031 36.375 104.281 36.0625C104.531 35.6875 104.781 35.3438 105.031 35.0312ZM119.094 46.1875C117.969 46.25 116.844 46.5312 115.719 47.0312C114.594 47.4688 113.594 48.125 112.719 49C111.844 49.8125 111.094 50.7812 110.469 51.9062C109.906 52.9688 109.625 54.1562 109.625 55.4688C109.625 56.7812 109.938 57.9375 110.562 58.9375C111.25 59.875 112.125 60.6562 113.188 61.2812C114.312 61.9062 115.5 62.2812 116.75 62.4062C118.062 62.5312 119.344 62.4062 120.594 62.0312C121.781 61.5938 122.906 60.9062 123.969 59.9688C125.031 58.9688 125.938 57.9062 126.688 56.7812C127.438 55.5938 127.969 54.4375 128.281 53.3125C128.594 52.125 128.625 51.1562 128.375 50.4062C127.875 48.7812 126.75 47.6562 125 47.0312C123.25 46.3438 121.281 46.0625 119.094 46.1875ZM201.969 39.7188C201.219 39.5938 200.281 39.5 199.156 39.4375C198.094 39.375 197.062 39.3438 196.062 39.3438C194.938 39.3438 193.75 39.375 192.5 39.4375C191.188 39.5 189.875 39.5625 188.562 39.625C187.438 39.6875 186.156 39.7812 184.719 39.9062C183.344 39.9688 182 40.0625 180.688 40.1875C181.188 39.9375 181.625 39.5938 182 39.1562C182.438 38.7188 182.812 38.2812 183.125 37.8438C183.438 37.3438 183.719 36.8125 183.969 36.25C184.281 35.3125 184.25 34.1875 183.875 32.875C183.5 31.5 182.812 30.25 181.812 29.125C180.875 28 179.656 27.125 178.156 26.5C176.719 25.8125 175.125 25.6562 173.375 26.0312C171.5 26.4688 169.812 27.125 168.312 28C166.875 28.875 165.656 30.0938 164.656 31.6562C163.719 33.1562 163.031 35.0312 162.594 37.2812C162.219 39.4688 162.125 42.0938 162.312 45.1562C162.562 48.9688 163.188 52 164.188 54.25C165.188 56.5 166.406 58.1875 167.844 59.3125C169.281 60.4375 170.844 61.125 172.531 61.375C174.281 61.5625 176 61.5625 177.688 61.375C178.875 61.125 179.969 60.5938 180.969 59.7812C181.781 59.0938 182.531 58.0938 183.219 56.7812C183.906 55.4688 184.219 53.6562 184.156 51.3438L195.594 50.875C194.281 54.5625 192.688 57.5 190.812 59.6875C188.938 61.8125 187.125 63.4688 185.375 64.6562C183.312 66.0312 181.25 66.9688 179.188 67.4688C176.625 67.9062 174.344 68.0938 172.344 68.0312C170.344 67.9062 168.531 67.5938 166.906 67.0938C165.281 66.5938 163.781 65.9688 162.406 65.2188C161.031 64.4688 159.719 63.6562 158.469 62.7812C157.656 62.2188 156.75 61.2812 155.75 59.9688C154.75 58.6562 153.812 57.0938 152.938 55.2812C152.062 53.4062 151.344 51.3438 150.781 49.0938C150.219 46.8438 150 44.5312 150.125 42.1562C150.25 39.7188 150.812 37.2812 151.812 34.8438C152.812 32.4062 154.406 30.0625 156.594 27.8125C159.906 24.4375 163.438 22.25 167.188 21.25C171 20.1875 174.594 19.9062 177.969 20.4062C181.344 20.8438 184.344 21.8125 186.969 23.3125C189.594 24.8125 191.438 26.4375 192.5 28.1875C193.562 29.9375 194.344 31.2812 194.844 32.2188C195.406 33.0938 195.812 33.7812 196.062 34.2812C196.375 34.7188 196.625 35.0625 196.812 35.3125C197.062 35.5 197.406 35.7812 197.844 36.1562C198.156 36.4688 198.531 36.8125 198.969 37.1875C199.344 37.5 199.781 37.875 200.281 38.3125C200.781 38.75 201.344 39.2188 201.969 39.7188ZM199.625 5.40625C200.312 5.71875 201.125 5.9375 202.062 6.0625C203.062 6.1875 204 6.25 204.875 6.25C205.938 6.25 207.031 6.21875 208.156 6.15625C209.281 6.09375 210.656 5.96875 212.281 5.78125C213.594 5.65625 215.219 5.5 217.156 5.3125C219.094 5.125 221.25 4.875 223.625 4.5625C222.75 5 222 5.46875 221.375 5.96875C220.75 6.46875 220.219 6.96875 219.781 7.46875C219.281 8.03125 218.875 8.59375 218.562 9.15625C218.125 9.90625 217.531 11.2188 216.781 13.0938C216.094 14.9062 215.375 16.9375 214.625 19.1875C213.938 21.4375 213.312 23.7188 212.75 26.0312C212.25 28.3438 211.969 30.3125 211.906 31.9375C211.844 33.3125 211.781 34.875 211.719 36.625C211.656 38.125 211.594 39.9688 211.531 42.1562C211.469 44.3438 211.406 46.8438 211.344 49.6562C215.844 46.4062 219.312 43.8125 221.75 41.875C224.188 39.875 225.969 38.3438 227.094 37.2812C228.406 36.0938 229.188 35.25 229.438 34.75C229.375 34.375 229.219 33.9688 228.969 33.5312C228.656 33.1562 228.219 32.7188 227.656 32.2188C227.094 31.7188 226.25 31.1562 225.125 30.5312C226.75 30.7188 228.156 30.8438 229.344 30.9062C230.594 30.9688 231.656 31.0312 232.531 31.0938C233.531 31.1562 234.406 31.1562 235.156 31.0938C235.969 31.0938 236.969 31.0625 238.156 31C240.219 30.9375 243.406 30.8438 247.719 30.7188C243.531 32.9062 240.219 34.7812 237.781 36.3438C236.406 37.2188 235.188 38.0312 234.125 38.7812C233.062 39.5938 231.969 40.4375 230.844 41.3125C229.844 42.0625 228.688 42.9375 227.375 43.9375C226.125 44.9375 224.875 46 223.625 47.125C225.812 50.6875 227.719 53.625 229.344 55.9375C231.031 58.25 232.438 60.125 233.562 61.5625C234.875 63.25 236.031 64.5938 237.031 65.5938C238.031 66.5312 239.344 67.5938 240.969 68.7812C242.344 69.8438 244.125 71.0938 246.312 72.5312C248.562 73.9062 251.281 75.5 254.469 77.3125C252.844 77 251.281 76.7812 249.781 76.6562C248.281 76.5938 247 76.5938 245.938 76.6562C244.625 76.7188 243.438 76.8438 242.375 77.0312C241.25 77.2812 240 77.5938 238.625 77.9688C237.438 78.2812 236.031 78.6875 234.406 79.1875C232.844 79.75 231.125 80.4688 229.25 81.3438C230.438 80.4688 231.312 79.625 231.875 78.8125C232.5 78.0625 232.938 77.4375 233.188 76.9375C233.438 76.3125 233.531 75.7812 233.469 75.3438C233.156 74.7188 232.438 73.4375 231.312 71.5C230.25 69.875 228.688 67.5 226.625 64.375C224.562 61.25 221.625 57 217.812 51.625C217.625 51.6875 217.312 51.875 216.875 52.1875C216.5 52.5 215.938 52.9375 215.188 53.5C214.438 54 213.438 54.75 212.188 55.75L214.719 72.1562C214.156 72.4062 213.531 72.625 212.844 72.8125C212.219 73 211.625 73.1562 211.062 73.2812C210.375 73.4688 209.688 73.5938 209 73.6562C208.312 73.7188 207.5 73.8438 206.562 74.0312C205.75 74.1562 204.781 74.3125 203.656 74.5C202.531 74.75 201.25 75.0312 199.812 75.3438C200.625 74.7812 201.281 74.125 201.781 73.375C202.281 72.6875 202.688 72.0312 203 71.4062C203.312 70.7188 203.594 70 203.844 69.25C203.969 68.625 204.094 67 204.219 64.375C204.406 61.75 204.562 58.625 204.688 55C204.812 51.3125 204.906 47.375 204.969 43.1875C205.094 39 205.156 35.0625 205.156 31.375C205.156 27.625 205.125 24.375 205.062 21.625C205 18.8125 204.875 17 204.688 16.1875C204.375 15.1875 204 14.125 203.562 13C203.188 12 202.656 10.875 201.969 9.625C201.344 8.3125 200.562 6.90625 199.625 5.40625ZM244.344 31.0938L261.594 31.2812C260.594 35.0938 259.844 38.3438 259.344 41.0312C258.906 43.7188 258.625 45.9688 258.5 47.7812C258.25 49.8438 258.188 51.5938 258.312 53.0312C258.5 54.3438 258.812 55.75 259.25 57.25C259.625 58.5 260.188 59.9375 260.938 61.5625C261.688 63.1875 262.688 64.8125 263.938 66.4375C263.188 66.1875 262.375 66 261.5 65.875C260.625 65.75 259.812 65.6562 259.062 65.5938C258.188 65.5312 257.312 65.5312 256.438 65.5938C255.562 65.6562 254.594 65.75 253.531 65.875C252.656 66 251.594 66.1562 250.344 66.3438C249.094 66.5312 247.781 66.7812 246.406 67.0938C247.344 64.2812 248.062 61.8438 248.562 59.7812C249.125 57.7188 249.531 56 249.781 54.625C250.031 53 250.188 51.6875 250.25 50.6875C250.25 49.4375 250.25 48.0312 250.25 46.4688C250.25 44.8438 250.25 43.2812 250.25 41.7812C250.25 40.2812 250.219 38.9688 250.156 37.8438C250.094 36.6562 249.969 35.9062 249.781 35.5938L248.844 34.6562C248.469 34.3438 247.906 33.9062 247.156 33.3438C246.469 32.7188 245.531 31.9688 244.344 31.0938ZM251 16.6562C252.312 15.9688 253.625 15.7812 254.938 16.0938C256.312 16.4062 257.375 17 258.125 17.875C258.875 18.75 259.125 19.7812 258.875 20.9688C258.688 22.1562 257.688 23.3125 255.875 24.4375C254.062 25.5 252.469 25.875 251.094 25.5625C249.719 25.25 248.75 24.5938 248.188 23.5938C247.625 22.5938 247.531 21.4375 247.906 20.125C248.281 18.75 249.312 17.5938 251 16.6562ZM271.438 76.375C272.688 75.5 273.688 74.3438 274.438 72.9062C275.188 71.4688 275.75 70.0625 276.125 68.6875C276.562 67.0625 276.844 65.375 276.969 63.625C276.969 62.5625 276.906 60.875 276.781 58.5625C276.656 56.625 276.469 53.9688 276.219 50.5938C275.969 47.1562 275.594 42.7188 275.094 37.2812C274.406 37.3438 273.812 37.4062 273.312 37.4688C272.812 37.4688 272.406 37.4688 272.094 37.4688H271.062C270.75 37.4688 270.375 37.5 269.938 37.5625C269.562 37.625 269.062 37.7188 268.438 37.8438C267.875 37.9688 267.188 38.125 266.375 38.3125C266.5 37.8125 266.562 37.3125 266.562 36.8125C266.625 36.25 266.688 35.75 266.75 35.3125C266.812 34.8125 266.844 34.3438 266.844 33.9062V32.5C266.844 32.0625 266.844 31.5938 266.844 31.0938C266.906 30.5938 266.969 30.0938 267.031 29.5938L274.438 29.7812C274.125 27.0938 274 24.6875 274.062 22.5625C274.125 20.375 274.219 18.5 274.344 16.9375C274.531 15.125 274.781 13.5312 275.094 12.1562C275.531 10.4688 276.125 8.90625 276.875 7.46875C277.625 6.03125 278.656 4.8125 279.969 3.8125C281.281 2.8125 282.906 2.0625 284.844 1.5625C286.781 1 289.125 0.71875 291.875 0.71875C295 0.78125 297.469 1.1875 299.281 1.9375C301.094 2.625 302.438 3.53125 303.312 4.65625C304.188 5.71875 304.688 6.9375 304.812 8.3125C304.938 9.6875 304.906 11.0312 304.719 12.3438C304.594 13.5938 304.375 14.75 304.062 15.8125C303.812 16.875 303.719 17.6562 303.781 18.1562C303.844 18.5312 304 19.0312 304.25 19.6562C304.438 20.1562 304.719 20.7812 305.094 21.5312C305.531 22.2812 306.156 23.125 306.969 24.0625C305.969 23.9375 304.969 23.8438 303.969 23.7812C302.969 23.6562 302.031 23.5625 301.156 23.5C300.156 23.4375 299.188 23.4062 298.25 23.4062C297.312 23.4688 296.344 23.5312 295.344 23.5938C294.469 23.7188 293.531 23.8438 292.531 23.9688C291.531 24.0312 290.594 24.2188 289.719 24.5312C290.969 23.6562 291.938 22.75 292.625 21.8125C293.312 20.875 293.844 20.0312 294.219 19.2812C294.656 18.4062 294.938 17.5312 295.062 16.6562C295.125 15.5938 295.062 14.4062 294.875 13.0938C294.75 11.7188 294.469 10.4688 294.031 9.34375C293.594 8.21875 293.062 7.3125 292.438 6.625C291.812 5.875 291.062 5.59375 290.188 5.78125C288.875 6.28125 287.656 7.5 286.531 9.4375C285.594 11.0625 284.688 13.5312 283.812 16.8438C282.938 20.0938 282.375 24.625 282.125 30.4375C283.312 30.5625 284.406 30.6562 285.406 30.7188C286.469 30.7188 287.406 30.75 288.219 30.8125C289.156 30.875 290.031 30.9062 290.844 30.9062C291.656 30.9062 292.562 30.875 293.562 30.8125C294.438 30.75 295.469 30.7188 296.656 30.7188C297.844 30.6562 299.156 30.5625 300.594 30.4375L300.406 35.3125C299.281 35.4375 298.188 35.5312 297.125 35.5938C296.062 35.6562 295.125 35.7188 294.312 35.7812C293.375 35.8438 292.5 35.9062 291.688 35.9688C290.812 36.0312 289.906 36.0938 288.969 36.1562C288.156 36.2188 287.219 36.3125 286.156 36.4375C285.156 36.5625 284.094 36.6875 282.969 36.8125C283.844 43.875 284.594 49.5938 285.219 53.9688C285.906 58.2812 286.5 61.625 287 64C287.5 66.8125 287.938 68.8125 288.312 70C288.688 71 289.125 71.875 289.625 72.625C290.062 73.3125 290.594 73.9688 291.219 74.5938C291.844 75.2188 292.562 75.625 293.375 75.8125C291.375 75.5 289.656 75.25 288.219 75.0625C286.781 74.9375 285.562 74.8438 284.562 74.7812C283.438 74.7188 282.469 74.6875 281.656 74.6875C280.906 74.75 280 74.8438 278.938 74.9688C277.125 75.1562 274.625 75.625 271.438 76.375ZM295.438 25.0938C296.688 25.2812 297.812 25.4375 298.812 25.5625C299.75 25.625 300.594 25.6875 301.344 25.75C302.156 25.8125 302.938 25.8438 303.688 25.8438C304.375 25.8438 305.25 25.8125 306.312 25.75C307.188 25.6875 308.312 25.625 309.688 25.5625C311.125 25.4375 312.812 25.2812 314.75 25.0938C314.625 25.3438 314.375 26.125 314 27.4375C313.625 28.6875 313.25 30.25 312.875 32.125C312.5 33.9375 312.156 35.9688 311.844 38.2188C311.594 40.4062 311.469 42.5938 311.469 44.7812C311.531 46.9062 311.812 48.9375 312.312 50.875C312.812 52.75 313.625 54.2812 314.75 55.4688C317.125 57.9062 319.219 59.375 321.031 59.875C322.906 60.375 324.531 60.3125 325.906 59.6875C327.281 59.0625 328.406 58.125 329.281 56.875C330.156 55.625 330.781 54.4688 331.156 53.4062C332.094 50.5312 332.656 47.5 332.844 44.3125C332.969 41.5625 332.75 38.5 332.188 35.125C331.625 31.75 330.281 28.3125 328.156 24.8125C329.781 24.9375 331.188 25.0312 332.375 25.0938C333.562 25.1562 334.594 25.2188 335.469 25.2812C336.469 25.3438 337.344 25.4062 338.094 25.4688C338.781 25.5312 339.594 25.5312 340.531 25.4688C341.344 25.4688 342.312 25.4375 343.438 25.375C344.625 25.25 345.938 25.125 347.375 25C347.625 31.125 347.844 36.5938 348.031 41.4062C348.219 46.1562 348.344 50.375 348.406 54.0625C348.531 57.6875 348.594 60.8438 348.594 63.5312C348.594 66.1562 348.594 68.375 348.594 70.1875C348.531 74.5 348.344 77.3438 348.031 78.7188C347.531 80.6562 346.625 82.5938 345.312 84.5312C344.062 86.4688 342.469 88.1875 340.531 89.6875C338.594 91.25 336.344 92.4375 333.781 93.25C331.281 94.125 328.531 94.4375 325.531 94.1875C322.594 93.9375 320.25 93.5312 318.5 92.9688C316.812 92.4688 315.469 91.875 314.469 91.1875C313.531 90.5 312.844 89.7812 312.406 89.0312C312.031 88.2812 311.75 87.5 311.562 86.6875C311.375 85.9375 311.188 85.2188 311 84.5312C310.812 83.8438 310.438 83.25 309.875 82.75C309.188 82.1875 308.469 81.625 307.719 81.0625C307.031 80.5625 306.281 80.0625 305.469 79.5625C304.719 79.0625 303.969 78.6562 303.219 78.3438L323.188 77.2188C322.625 77.9688 322.219 78.6562 321.969 79.2812C321.719 79.9062 321.562 80.4375 321.5 80.875C321.438 81.4375 321.469 81.9062 321.594 82.2812C321.844 83.0312 322.281 83.8438 322.906 84.7188C323.594 85.6562 324.469 86.375 325.531 86.875C326.594 87.4375 327.844 87.625 329.281 87.4375C330.781 87.25 332.469 86.4688 334.344 85.0938C335.906 83.9062 337.219 82 338.281 79.375C339.156 77.125 339.844 73.9688 340.344 69.9062C340.844 65.8438 340.75 60.5 340.062 53.875C338.938 57.75 337.406 60.7188 335.469 62.7812C333.531 64.8438 331.594 66.3438 329.656 67.2812C327.406 68.4062 325.062 69 322.625 69.0625C319.375 68.9375 316.594 68.5312 314.281 67.8438C311.969 67.0938 310.062 66.0938 308.562 64.8438C307.062 63.5938 305.875 62.125 305 60.4375C304.188 58.6875 303.594 56.75 303.219 54.625C302.844 52.5 302.656 50.375 302.656 48.25C302.656 46.0625 302.656 44.0312 302.656 42.1562C302.719 40.2812 302.75 38.5938 302.75 37.0938C302.75 35.5312 302.594 34.2812 302.281 33.3438C301.906 32.4062 301.406 31.4688 300.781 30.5312C300.281 29.7188 299.594 28.8438 298.719 27.9062C297.781 26.9062 296.688 25.9688 295.438 25.0938Z" fill="white"/>
</svg>
